<svg xmlns="http://www.w3.org/2000/svg" viewBox="0 0 2048 2048">
  <g transform="translate(0.000000,2048.000000) scale(0.100000,-0.100000)"
fill="#38BDF8" stroke="none">
<path d="M9955 17574 c-750 -40 -1359 -151 -2010 -369 -738 -246 -1418 -600
-2054 -1068 -864 -636 -1608 -1493 -2121 -2445 -466 -865 -756 -1849 -842
-2862 -8 -99 -13 -318 -13 -605 0 -471 9 -630 56 -980 104 -786 377 -1637 756
-2365 626 -1200 1594 -2227 2754 -2923 729 -437 1506 -739 2345 -911 746 -153
1568 -181 2359 -81 814 104 1706 390 2457 790 870 462 1609 1064 2254 1835
525 628 952 1370 1243 2162 409 1115 534 2333 361 3538 -194 1355 -750 2591
-1650 3670 -168 201 -566 607 -767 783 -1158 1010 -2580 1639 -4048 1791 -82
9 -206 21 -275 26 -132 11 -686 20 -805 14z m2375 -2379 c179 -47 367 -201
447 -365 62 -127 77 -203 70 -357 -8 -200 -75 -415 -200 -642 -95 -173 -186
-250 -307 -259 -84 -6 -152 10 -249 55 -83 39 -91 38 -130 -18 -23 -34 -23
-37 -18 -214 12 -376 -24 -594 -136 -837 -87 -189 -171 -287 -561 -653 -172
-161 -248 -247 -347 -392 -38 -57 -74 -103 -78 -103 -10 0 -127 48 -164 66
l-27 15 26 47 c107 187 258 360 543 621 119 109 242 230 274 269 109 133 183
290 230 487 19 81 22 120 22 395 1 258 4 312 18 348 37 97 138 203 210 223 53
14 92 6 195 -42 120 -55 153 -63 196 -45 45 19 87 76 152 211 107 223 157 436
135 584 -36 242 -228 401 -485 401 -145 0 -240 -35 -333 -122 -102 -97 -137
-194 -152 -418 -15 -220 -50 -312 -157 -409 -94 -86 -177 -119 -357 -141 l-98
-13 -68 32 c-110 50 -207 81 -294 92 -142 18 -360 -8 -463 -56 -59 -28 -84
-25 -131 16 -28 24 -43 28 -130 36 -271 23 -709 -2 -811 -47 -94 -42 -267
-236 -545 -610 -105 -140 -227 -304 -272 -365 -54 -71 -133 -158 -224 -244
-78 -73 -156 -154 -173 -179 -42 -62 -78 -166 -78 -231 0 -49 3 -57 39 -92 21
-22 45 -39 52 -39 8 0 51 39 96 87 74 79 85 87 118 87 32 0 43 -7 75 -44 l38
-44 21 34 c41 67 61 155 61 266 0 125 28 227 84 302 65 89 230 234 483 425
135 102 209 172 293 277 105 131 118 136 261 100 188 -48 359 -77 614 -105
235 -25 340 -70 470 -200 61 -60 90 -99 117 -155 71 -148 85 -226 48 -273 -37
-46 -120 -55 -155 -17 -9 10 -32 59 -50 109 -19 51 -49 112 -67 137 -33 46
-124 121 -134 111 -3 -3 -21 -77 -39 -164 -74 -350 -149 -613 -228 -796 -105
-241 -199 -379 -421 -620 -85 -93 -180 -205 -211 -250 -66 -98 -110 -214 -125
-330 -33 -249 90 -498 319 -645 146 -94 417 -196 745 -282 139 -36 759 -176
1021 -231 95 -19 114 -27 143 -55 36 -36 43 -84 17 -133 -16 -32 -39 -43 -146
-70 -174 -44 -335 -156 -448 -310 -26 -36 -85 -131 -130 -210 -136 -239 -231
-368 -396 -540 -116 -122 -250 -228 -408 -325 -129 -79 -177 -122 -177 -157 0
-13 69 -92 182 -207 125 -129 217 -234 294 -338 114 -154 158 -196 259 -247
57 -29 176 -69 183 -62 2 2 -23 38 -55 78 -107 133 -144 215 -203 447 -68 271
-59 386 42 526 57 80 360 330 1048 863 539 418 558 436 595 549 26 78 17 192
-19 267 -34 68 -119 161 -243 264 -363 303 -879 582 -1493 805 -177 65 -197
75 -218 106 -18 27 -22 43 -17 69 13 71 70 117 124 101 147 -43 636 -248 896
-376 500 -245 986 -608 1118 -834 123 -212 111 -450 -33 -643 -46 -60 -133
-132 -675 -556 -645 -505 -870 -689 -922 -757 -43 -57 -44 -146 -3 -311 49
-198 79 -264 165 -373 111 -140 138 -233 96 -325 -33 -74 -104 -115 -197 -115
-56 0 -177 32 -258 69 -146 66 -222 138 -391 366 -60 81 -144 175 -260 290
-133 131 -178 183 -199 226 -82 172 -14 305 230 448 153 90 242 159 365 282
156 157 304 360 395 541 88 177 231 349 367 442 31 22 57 42 57 45 0 4 -69 21
-152 40 -237 51 -682 159 -798 192 -261 76 -501 180 -648 282 -40 27 -106 86
-147 129 -265 282 -322 659 -152 1007 54 112 131 214 274 363 65 68 139 148
164 178 146 176 271 430 355 722 39 139 145 618 139 629 -3 3 -46 10 -97 14
-127 9 -308 39 -460 76 l-126 30 -139 -139 c-100 -101 -189 -177 -323 -278
-195 -147 -334 -276 -365 -340 -14 -30 -20 -67 -22 -155 -4 -138 -27 -241 -80
-346 -20 -40 -38 -73 -40 -73 -2 0 -40 24 -85 54 l-81 54 -69 -89 c-115 -149
-201 -195 -319 -170 -152 33 -248 163 -249 337 0 195 92 362 313 565 135 125
173 168 285 328 346 493 653 849 795 923 61 31 172 55 314 68 157 15 662 8
795 -10 75 -10 102 -9 185 6 62 10 152 17 243 17 162 0 255 -17 402 -75 71
-27 95 -32 168 -31 96 0 154 21 209 75 59 58 71 94 87 276 17 201 31 262 85
368 86 172 251 303 438 349 77 18 291 19 361 0z m1611 -1671 c61 -34 108 -88
146 -170 26 -54 28 -69 28 -174 -1 -105 -3 -122 -31 -191 -45 -111 -114 -208
-207 -291 -134 -121 -236 -225 -372 -383 -312 -362 -582 -605 -775 -699 -82
-40 -88 -41 -185 -41 -88 0 -107 3 -158 27 -31 15 -85 48 -120 75 -92 71 -312
293 -405 411 l-82 102 67 90 c65 89 66 90 81 68 99 -145 392 -455 492 -521
107 -71 172 -60 335 58 169 121 329 278 593 580 97 110 212 234 256 275 262
246 286 282 294 431 5 97 -10 141 -55 162 -25 11 -28 9 -62 -33 -69 -86 -108
-120 -134 -120 -40 0 -77 21 -84 48 -5 19 -8 21 -18 10 -23 -23 -45 -107 -45
-171 -1 -173 -40 -275 -150 -385 -87 -89 -153 -135 -376 -267 -98 -59 -216
-133 -261 -166 -94 -68 -126 -78 -176 -54 -35 16 -59 48 -122 160 -15 28 -92
147 -170 265 -78 118 -145 221 -149 227 -4 7 -2 48 4 91 6 43 11 141 11 218
l1 139 34 -40 c48 -57 88 -136 125 -246 19 -58 48 -119 76 -159 25 -36 92
-137 150 -225 59 -88 110 -164 114 -169 5 -5 40 12 81 41 40 27 137 86 215
131 220 126 307 195 354 282 7 14 16 77 20 145 7 127 29 205 91 328 32 64 28
64 113 7 22 -15 45 -30 52 -34 7 -4 24 12 44 41 60 90 108 131 179 154 44 15
126 2 181 -27z m-4907 -2997 c19 -34 46 -77 59 -95 l25 -34 -60 -126 c-33 -70
-104 -224 -158 -342 -150 -329 -204 -441 -238 -487 -39 -52 -121 -93 -257
-129 -199 -52 -375 -148 -515 -280 -40 -38 -141 -159 -224 -269 -163 -215
-338 -405 -476 -516 -143 -116 -244 -157 -489 -202 -45 -9 -92 -23 -102 -33
-26 -23 -24 -50 11 -206 45 -204 60 -310 70 -520 13 -258 24 -302 96 -373 47
-48 194 -120 194 -96 0 4 -14 29 -32 57 -101 158 -102 197 -13 486 100 321
148 411 301 559 165 158 474 386 827 610 241 153 406 247 712 405 201 104 260
139 337 203 148 123 477 489 642 713 l78 107 95 -35 c53 -18 97 -34 99 -34 28
0 -129 -219 -316 -440 -152 -180 -467 -495 -558 -558 -41 -28 -160 -94 -265
-146 -581 -286 -1278 -750 -1538 -1023 -90 -94 -117 -148 -193 -381 -80 -245
-81 -250 -18 -370 61 -117 70 -160 48 -234 -43 -149 -206 -180 -414 -77 -82
40 -181 133 -219 206 -46 87 -64 184 -74 398 -9 207 -22 294 -74 516 -54 227
-47 288 45 380 64 64 102 79 283 109 135 23 165 34 256 94 158 105 325 279
523 544 270 361 474 512 826 607 113 31 131 39 158 70 30 34 87 151 274 560
119 261 219 457 229 450 5 -3 25 -33 45 -68z m6742 -2703 c220 -130 403 -240
407 -244 8 -7 -77 -165 -95 -176 -9 -6 -596 -88 -678 -96 -37 -3 -21 -14 364
-248 48 -30 90 -59 93 -66 3 -9 -82 -161 -102 -183 -2 -2 -41 19 -87 47 -63
38 -631 387 -717 441 -11 7 -6 22 25 81 21 40 48 78 59 85 11 7 175 35 365 62
l345 49 -240 144 c-132 78 -244 146 -249 151 -4 4 11 43 34 86 48 86 59 103
70 103 4 0 187 -106 406 -236z m-10376 -296 c194 -316 229 -413 196 -545 -59
-242 -370 -324 -564 -149 -42 39 -126 154 -161 223 -11 23 -25 45 -31 48 -11
7 -67 -23 -170 -92 l-64 -43 -27 43 c-15 24 -41 69 -58 100 l-32 56 58 37
c237 153 747 474 753 474 3 0 48 -68 100 -152z m9893 -836 c32 -34 70 -87 85
-119 24 -51 27 -70 27 -158 0 -92 -2 -105 -32 -166 -49 -100 -147 -200 -241
-246 -72 -36 -81 -38 -171 -38 -147 0 -163 10 -549 358 l-143 129 72 79 c39
43 74 79 78 79 3 0 69 -57 146 -126 310 -279 345 -304 425 -304 118 0 230 138
201 248 -20 71 -72 131 -263 299 -105 93 -201 176 -214 186 -13 10 -24 23 -24
28 0 6 30 45 66 89 l66 79 206 -178 c114 -98 233 -206 265 -239z m-9210 -101
c42 -43 77 -84 77 -90 0 -7 -61 -161 -136 -344 -76 -183 -165 -401 -200 -486
-35 -84 -65 -155 -67 -157 -2 -2 -41 35 -87 81 l-84 84 49 106 c48 106 48 106
29 130 -53 66 -279 305 -288 305 -5 0 -54 -14 -108 -32 -53 -18 -99 -30 -101
-28 -2 3 -34 40 -71 84 -37 43 -64 82 -59 86 4 4 188 69 408 145 220 76 434
151 475 166 41 16 78 28 81 29 3 0 40 -35 82 -79z m8150 -451 c65 -25 157
-115 189 -186 27 -62 33 -146 14 -214 -8 -30 -12 -58 -8 -61 7 -6 250 -82 305
-95 15 -3 29 -10 32 -14 2 -4 -36 -41 -86 -83 -105 -88 -78 -86 -274 -21
l-129 43 -72 -62 c-40 -34 -73 -66 -73 -72 0 -5 35 -56 79 -113 44 -56 80
-105 80 -110 -1 -8 -141 -119 -162 -127 -8 -3 -24 8 -38 27 -29 39 -239 304
-432 545 -76 95 -138 176 -138 180 0 10 27 33 224 192 76 61 159 124 184 138
93 55 212 68 305 33z m-7562 -150 c132 -41 277 -163 343 -290 21 -39 36 -73
34 -74 -9 -9 -151 -86 -156 -86 -4 0 -22 29 -41 65 -54 105 -177 204 -254 205
-34 0 -87 -48 -87 -80 0 -37 27 -82 121 -201 50 -63 100 -131 111 -153 25 -49
33 -129 19 -183 -17 -63 -80 -136 -146 -168 -50 -25 -63 -27 -140 -23 -121 6
-204 49 -330 170 -78 74 -102 105 -135 170 -22 44 -40 86 -40 93 0 8 30 30 67
49 98 52 98 52 111 8 17 -56 81 -150 139 -204 95 -88 180 -112 228 -63 48 47
28 100 -90 247 -105 130 -139 196 -139 273 0 46 6 72 27 111 67 131 204 182
358 134z m6348 -647 l39 -79 -224 -112 -224 -112 24 -52 c43 -96 60 -128 68
-128 4 0 95 42 201 94 l194 93 36 -79 36 -79 -192 -95 c-106 -53 -194 -98
-197 -101 -8 -8 90 -193 103 -193 7 0 113 50 236 110 124 61 228 107 232 103
10 -11 70 -155 66 -159 -6 -6 -657 -324 -663 -324 -7 0 -313 632 -401 828
l-23 53 322 159 c178 87 324 157 326 155 1 -1 20 -38 41 -82z m-5431 31 c339
-111 481 -488 291 -769 -36 -54 -127 -138 -175 -163 -115 -58 -283 -68 -408
-24 -280 101 -426 384 -335 650 93 269 352 396 627 306z m972 -416 c229 -70
309 -109 394 -192 106 -103 150 -238 127 -387 -34 -219 -156 -364 -346 -414
-123 -32 -192 -22 -498 72 -216 66 -219 67 -214 92 3 19 162 559 263 893 6 19
-1 21 274 -64z m3200 -90 c6 -24 52 -182 102 -353 50 -170 93 -320 96 -332 2
-13 8 -23 13 -23 5 0 107 29 226 65 119 36 222 64 228 61 6 -2 19 -37 29 -77
11 -41 21 -79 23 -85 2 -6 -27 -20 -64 -31 -301 -92 -606 -183 -608 -181 -1 2
-16 53 -33 113 -18 61 -79 270 -136 465 -57 195 -102 356 -101 358 2 2 193 59
207 61 4 0 12 -18 18 -41z m-550 -145 c92 -42 143 -120 144 -223 1 -54 -4 -73
-27 -113 -16 -27 -35 -51 -43 -54 -24 -9 -16 -20 30 -43 173 -83 194 -332 38
-431 -78 -50 -158 -67 -453 -100 -154 -18 -281 -30 -283 -28 -7 9 -106 952
-101 958 4 3 106 18 228 33 266 32 399 32 467 1z m-1315 -8 c156 -33 296 -137
360 -269 96 -195 60 -423 -89 -572 -71 -71 -137 -107 -244 -135 -96 -24 -169
-24 -266 1 -101 25 -167 62 -237 130 -194 190 -196 525 -4 715 63 62 132 100
227 125 89 23 160 24 253 5z"/>
<path d="M5190 7348 c-36 -23 -95 -61 -133 -85 l-67 -43 16 -33 c36 -69 115
-177 150 -203 27 -21 47 -28 83 -28 129 0 200 128 138 250 -37 73 -102 177
-113 181 -5 1 -38 -16 -74 -39z"/>
<path d="M5870 6414 c-19 -8 -77 -31 -129 -51 -51 -19 -113 -43 -138 -54 l-44
-19 97 -107 c53 -60 100 -109 104 -111 4 -1 15 19 25 45 10 26 44 108 76 181
31 72 54 132 51 132 -4 -1 -23 -8 -42 -16z"/>
<path d="M14012 5935 c-43 -19 -202 -143 -202 -158 0 -12 190 -247 200 -247
22 0 185 153 206 192 31 59 6 149 -56 202 -36 30 -94 34 -148 11z"/>
<path d="M7403 5199 c-127 -24 -235 -150 -250 -292 -20 -198 178 -359 372
-302 80 23 173 114 200 195 36 108 15 232 -53 304 -70 74 -178 112 -269 95z"/>
<path d="M8416 4678 c-53 -174 -118 -400 -124 -430 -4 -26 -1 -28 94 -58 135
-44 245 -51 308 -20 167 80 224 345 101 473 -47 49 -98 75 -218 111 -65 20
-120 36 -122 36 -2 0 -20 -51 -39 -112z"/>
<path d="M10885 4564 c-71 -8 -132 -18 -136 -22 -6 -6 18 -202 27 -211 8 -8
277 30 302 43 61 31 83 94 53 149 -28 52 -75 59 -246 41z"/>
<path d="M10906 4174 c-60 -8 -111 -16 -113 -18 -2 -2 2 -53 9 -115 14 -130
-5 -120 183 -96 160 21 189 30 219 66 39 46 36 101 -8 145 -33 33 -37 34 -107
33 -41 -1 -123 -8 -183 -15z"/>
<path d="M9721 4529 c-91 -18 -172 -92 -206 -188 -20 -56 -19 -175 1 -234 20
-60 79 -126 140 -157 41 -21 63 -25 134 -25 98 0 141 18 201 82 66 68 84 116
84 218 0 79 -4 96 -27 140 -50 92 -103 136 -193 160 -65 17 -70 17 -134 4z"/>
</g>
</svg>